<svg xmlns="http://www.w3.org/2000/svg" width="28" height="28" viewBox="0 0 28 28" fill="none">
<path d="M13.9989 25.6667C8.23164 25.5907 3.57487 20.9339 3.49885 15.1667C3.57487 9.39947 8.23164 4.7427 13.9989 4.66668C19.7661 4.7427 24.4228 9.39947 24.4989 15.1667C24.4228 20.9339 19.7661 25.5907 13.9989 25.6667ZM13.9989 7.00002C9.51321 7.05907 5.89124 10.681 5.83219 15.1667C5.89124 19.6523 9.51321 23.2743 13.9989 23.3334C18.4845 23.2743 22.1065 19.6523 22.1655 15.1667C22.1065 10.681 18.4845 7.05907 13.9989 7.00002ZM19.8322 16.3334H12.8322V9.33335H15.1655V14H19.8322V16.3334ZM23.6729 7.82602L20.1624 4.32602L21.8062 2.67285L25.3179 6.17285L23.6729 7.82485V7.82602ZM4.32368 7.82602L2.67285 6.17285L6.16235 2.67285L7.81319 4.32602L4.32602 7.82602H4.32368Z" fill="#626262"/>
</svg>